<?xml version="1.0" standalone="no"?>
<!DOCTYPE svg PUBLIC "-//W3C//DTD SVG 20010904//EN"
 "http://www.w3.org/TR/2001/REC-SVG-20010904/DTD/svg10.dtd">
<svg version="1.0" xmlns="http://www.w3.org/2000/svg"
 width="445.000000pt" height="447.000000pt" viewBox="0 0 445.000000 447.000000"
 preserveAspectRatio="xMidYMid meet">

<g transform="translate(0.000000,447.000000) scale(0.100000,-0.100000)"
fill="#000000" stroke="none">
<path d="M3596 4234 c-20 -20 -20 -53 0 -82 10 -15 13 -33 9 -51 -5 -23 -10
-27 -31 -23 -13 2 -26 8 -29 11 -2 4 -35 4 -74 0 -163 -18 -476 -30 -596 -25
-189 9 -389 28 -399 37 -5 4 -2 23 8 43 18 39 11 67 -22 85 -22 11 -57 -2 -66
-25 -4 -10 -6 -243 -6 -519 l0 -502 -35 -19 c-48 -25 -30 -37 25 -16 36 13 79
17 213 17 153 0 167 1 167 18 0 10 -7 20 -15 23 -9 4 -20 15 -25 25 -9 15 -4
23 30 45 32 21 38 30 29 40 -12 14 -8 17 36 28 11 2 -8 2 -43 -1 l-62 -6 2
317 3 316 305 4 c168 3 314 6 325 8 20 3 20 -3 23 -309 2 -292 -1 -338 -24
-302 -12 21 -89 49 -133 49 -37 0 -42 2 -36 18 27 68 13 112 -35 112 -22 0
-31 7 -41 33 -18 42 -18 107 -1 107 7 0 12 -8 11 -17 -1 -10 0 -21 1 -25 1 -5
4 -11 5 -15 12 -40 32 -73 42 -73 7 0 13 2 13 5 0 11 -24 55 -31 55 -4 0 -5 9
-2 20 7 26 -22 70 -47 70 -10 0 -22 5 -26 11 -4 8 3 9 26 4 46 -10 35 13 -14
30 -33 12 -43 11 -72 -3 -28 -14 -34 -23 -34 -50 0 -40 -20 -88 -49 -121 -16
-19 -18 -26 -9 -33 10 -6 10 -8 1 -8 -20 0 -15 -71 7 -107 16 -27 17 -33 5
-33 -17 0 -20 -21 -4 -37 7 -7 6 -14 -4 -24 -11 -12 -3 -14 57 -16 119 -4 170
5 205 36 23 21 28 30 19 39 -26 26 73 7 118 -23 27 -18 22 -49 -7 -40 -10 3
-42 8 -70 10 -57 3 -49 -10 11 -20 41 -7 152 -65 158 -82 6 -20 -43 -44 -103
-50 -64 -7 -79 -24 -44 -51 28 -23 20 -52 -15 -52 -31 0 -49 30 -40 65 5 20 3
25 -14 25 -24 0 -33 -21 -25 -60 3 -19 1 -30 -5 -30 -6 0 -14 16 -18 35 -7 42
-12 45 -41 34 -14 -5 -26 -23 -34 -48 -7 -23 -16 -41 -22 -41 -5 0 -6 8 -2 18
3 9 9 29 12 45 5 23 2 27 -15 27 -14 0 -20 -5 -16 -14 9 -24 -15 -56 -41 -56
-13 0 -27 5 -30 11 -10 16 3 23 18 11 10 -9 17 -8 25 0 19 19 14 28 -13 28
-17 0 -25 6 -25 18 0 9 -9 -2 -20 -25 -15 -34 -24 -43 -45 -43 -24 0 -29 10
-28 58 1 18 -22 15 -187 -18 -233 -47 -298 -72 -381 -145 -44 -39 -58 -71 -69
-164 -6 -41 -13 -83 -16 -93 -4 -14 0 -18 18 -19 17 -1 18 -3 6 -6 -30 -8 -20
-23 15 -24 l32 -1 -35 -8 c-19 -4 -54 -10 -77 -14 l-41 -6 4 98 c3 92 10 152
20 197 4 18 4 18 -6 3 -23 -36 -30 -191 -35 -736 -3 -312 -8 -568 -10 -570 -2
-2 -21 8 -43 22 -47 29 -154 66 -193 66 -15 0 -30 4 -34 9 -10 18 33 31 99 31
36 0 67 4 70 8 3 5 6 190 7 413 l2 404 -39 9 c-22 4 -49 13 -61 18 -27 13 -53
4 -60 -22 -5 -20 -14 -20 -433 -20 l-428 0 -16 25 c-22 33 -46 32 -80 -4 -23
-24 -26 -32 -17 -49 14 -26 15 -633 2 -679 -6 -22 -6 -35 1 -39 7 -4 6 -9 -1
-14 -7 -3 -9 -14 -6 -22 5 -12 30 -17 103 -22 86 -7 183 -32 157 -42 -5 -2
-58 -13 -117 -23 -128 -23 -212 -61 -245 -110 -37 -55 -74 -191 -52 -191 17 0
29 -44 14 -55 -7 -6 -14 -41 -16 -87 -7 -123 -32 -120 -49 6 -13 90 -5 293 12
334 7 15 25 46 41 70 l28 42 -25 0 c-15 0 -30 8 -36 19 -15 28 -13 31 20 31
l30 0 0 228 0 227 -37 10 c-23 7 -168 11 -363 10 l-325 0 -7 -40 c-4 -22 -7
-128 -7 -236 l-1 -196 83 5 c65 3 85 8 97 23 8 10 30 24 48 30 25 8 30 14 20
20 -9 6 -7 9 9 9 12 0 25 -5 29 -11 9 -15 167 -5 172 10 5 14 57 14 83 0 11
-5 17 -14 14 -19 -3 -5 1 -20 10 -34 10 -15 12 -26 6 -30 -20 -13 -175 -25
-260 -21 -103 4 -211 -10 -268 -35 l-43 -19 0 -340 c0 -259 3 -341 12 -341 9
0 9 -3 0 -12 -7 -7 -12 -41 -12 -84 l0 -71 134 -7 c74 -4 219 -4 323 0 l189 7
10 -49 c7 -40 14 -51 39 -63 55 -26 264 -42 645 -48 385 -6 620 4 732 31 69
16 68 18 68 -104 0 -113 8 -124 120 -156 139 -41 417 -59 850 -58 586 3 829
24 885 80 12 12 15 40 15 128 0 99 -3 121 -25 170 -30 69 -31 78 -3 152 21 58
22 70 22 604 2 974 -7 1294 -39 1407 -12 40 -26 60 -62 92 -58 49 -67 53 -175
86 -49 15 -90 31 -93 36 -9 14 42 22 98 16 l52 -5 -2 500 c-2 392 -5 503 -15
516 -16 19 -111 62 -138 62 -10 0 -26 -7 -34 -16z m-948 -181 c-10 -2 -26 -2
-35 0 -10 3 -2 5 17 5 19 0 27 -2 18 -5z m939 -65 c-3 -8 -6 -5 -6 6 -1 11 2
17 5 13 3 -3 4 -12 1 -19z m-1087 -8 c0 -5 -2 -10 -4 -10 -3 0 -8 5 -11 10 -3
6 -1 10 4 10 6 0 11 -4 11 -10z m1057 -262 c-3 -8 -6 -5 -6 6 -1 11 2 17 5 13
3 -3 4 -12 1 -19z m-542 2 c-3 -5 -11 -10 -16 -10 -6 0 -7 5 -4 10 3 6 11 10
16 10 6 0 7 -4 4 -10z m2 -98 c13 -13 11 -17 -16 -28 -21 -9 -29 -18 -25 -28
3 -9 1 -16 -5 -16 -16 0 -13 46 4 60 8 7 16 29 16 49 2 32 2 33 6 7 3 -16 11
-36 20 -44z m530 26 c-3 -8 -6 -5 -6 6 -1 11 2 17 5 13 3 -3 4 -12 1 -19z
m-487 -94 c0 -2 -12 -4 -27 -4 -21 0 -24 3 -14 9 13 8 41 5 41 -5z m-100 -136
c0 -18 -2 -20 -9 -8 -6 8 -7 18 -5 22 9 14 14 9 14 -14z m110 12 c0 -5 -7 -10
-15 -10 -8 0 -15 5 -15 10 0 6 7 10 15 10 8 0 15 -4 15 -10z m395 -140 c3 -5
-1 -10 -9 -10 -9 0 -16 5 -16 10 0 6 4 10 9 10 6 0 13 -4 16 -10z m-797 -15
c6 -2 12 -11 12 -20 0 -24 -44 -18 -74 10 l-27 25 38 -5 c21 -3 44 -8 51 -10z
m767 -5 c14 -16 15 -20 4 -20 -16 0 -39 19 -39 32 0 14 16 9 35 -12z m218
-201 c53 -28 104 -66 111 -84 8 -22 -34 -42 -48 -24 -13 17 -110 80 -148 97
-16 6 -28 16 -28 22 0 18 69 11 113 -11z m-750 -86 c-8 -3 -13 -24 -13 -55 0
-35 -4 -48 -12 -45 -9 2 -12 19 -10 49 2 36 -1 47 -15 53 -15 7 -13 9 12 15
30 7 62 -8 38 -17z m117 -38 c0 -37 -4 -65 -10 -65 -5 0 -10 25 -10 55 0 32
-4 55 -11 55 -5 0 -7 5 -4 10 3 6 13 10 21 10 11 0 14 -15 14 -65z m120 44 c9
-16 8 -26 -6 -47 -19 -29 -20 -37 -4 -37 6 0 11 -4 13 -10 1 -5 -15 -11 -35
-13 -39 -3 -48 7 -25 30 7 7 21 25 31 40 17 26 17 28 1 34 -10 4 -21 1 -25 -7
-5 -7 -12 -10 -16 -6 -10 10 16 37 37 37 10 0 23 -9 29 -21z m140 1 c13 -24
-15 -100 -36 -100 -12 0 -12 4 -2 20 11 17 10 22 -10 35 -25 18 -28 35 -10 53
18 18 46 14 58 -8z m-330 -31 c0 -5 -4 -9 -10 -9 -5 0 -10 7 -10 16 0 8 5 12
10 9 6 -3 10 -10 10 -16z m240 -64 c0 -8 -4 -15 -10 -15 -5 0 -10 7 -10 15 0
8 5 15 10 15 6 0 10 -7 10 -15z m-240 -5 c0 -5 -7 -10 -15 -10 -8 0 -15 5 -15
10 0 6 7 10 15 10 8 0 15 -4 15 -10z m-690 -243 c0 -2 -8 -19 -17 -38 -17 -31
-18 -92 -19 -822 0 -521 -4 -791 -11 -798 -16 -16 -32 11 -43 72 -9 48 -14
246 -37 1288 -7 313 -10 301 79 301 26 0 48 -2 48 -3z m-1256 -153 c9 -25 7
-212 -3 -218 -5 -3 -14 40 -21 97 -6 56 -14 110 -16 120 -7 22 31 24 40 1z
m704 -283 l2 -291 -32 7 c-29 6 -32 5 -20 -10 11 -13 10 -17 -4 -25 -15 -8
-13 -11 13 -16 17 -4 47 -4 66 -1 44 8 53 -5 26 -39 -18 -23 -22 -24 -36 -11
-25 26 -52 36 -77 29 -21 -5 -27 0 -42 28 -20 38 -55 90 -68 99 -4 4 -3 16 3
27 16 30 14 63 -8 118 -10 27 -26 71 -34 99 -13 45 -18 51 -52 59 -55 13 -81
-3 -88 -55 -3 -23 -15 -55 -27 -71 -36 -49 -43 -127 -15 -158 16 -18 16 -20 2
-20 -37 0 -6 -75 37 -90 38 -13 59 -13 124 2 43 10 52 16 48 30 -5 23 16 23
36 1 24 -28 52 -86 50 -103 -10 -58 -22 -68 -93 -80 -41 -7 -93 -9 -131 -4
-35 4 -93 6 -129 5 -71 -2 -82 4 -94 51 -6 23 -2 30 34 55 40 28 63 57 36 47
-10 -4 -12 0 -8 15 4 17 1 21 -21 21 l-26 0 0 283 c0 156 2 286 4 288 2 2 121
3 263 2 l258 -2 3 -290z m1411 198 c1 -15 -6 -33 -15 -40 -15 -12 -16 -10 -10
18 5 20 3 34 -5 38 -14 9 -29 -12 -29 -42 0 -29 -16 -30 -23 -1 -4 14 2 33 17
53 12 16 26 39 30 50 7 18 10 16 21 -15 8 -19 14 -47 14 -61z m-154 10 c43
-23 55 -36 55 -58 0 -10 -7 -8 -23 7 -30 28 -39 28 -35 0 2 -12 13 -28 26 -34
18 -9 20 -13 9 -17 -25 -9 -50 18 -67 72 -10 28 -14 51 -11 51 3 0 24 -10 46
-21z m295 16 c0 -3 -6 -20 -14 -38 -16 -40 -42 -67 -64 -67 -12 0 -9 7 12 29
15 16 24 31 19 34 -14 8 -53 -12 -53 -28 0 -8 -4 -15 -10 -15 -14 0 -12 37 2
47 15 9 89 40 101 42 4 1 7 -1 7 -4z m48 -124 c49 -19 45 -28 -20 -55 -31 -13
-38 -13 -54 -1 -18 13 -16 14 19 15 25 0 37 5 37 14 0 21 -42 28 -62 9 -16
-15 -18 -15 -18 0 0 16 26 37 45 36 6 0 29 -8 53 -18z m-361 -8 c3 -8 -6 -10
-31 -6 -38 6 -47 -5 -21 -27 8 -6 23 -9 36 -5 15 5 20 3 17 -6 -8 -25 -48 -21
-93 9 -43 28 -44 30 -22 40 28 14 109 11 114 -5z m203 -12 c19 -16 32 -32 29
-35 -4 -4 -51 -5 -104 -4 l-99 3 33 33 c43 43 92 44 141 3z m-310 -36 c0 -11
-12 -15 -49 -15 -29 0 -53 -6 -60 -14 -8 -9 -11 -74 -9 -212 l3 -199 353 -3
352 -2 -2 212 -3 213 -42 3 c-24 2 -43 8 -43 13 0 6 20 9 47 7 69 -4 73 -15
73 -244 0 -149 -3 -194 -14 -210 -14 -18 -31 -19 -364 -22 l-350 -3 -21 27
c-20 25 -21 39 -21 225 l0 198 26 20 c33 26 124 30 124 6z m-1366 -3 c6 -10
-30 -9 -40 1 -4 4 2 7 14 7 11 0 23 -4 26 -8z m2 -59 c-3 -4 0 -13 6 -21 7 -8
13 -28 14 -43 1 -24 -2 -29 -22 -29 -13 0 -24 5 -24 10 0 6 5 10 10 10 19 0
10 15 -23 38 l-32 22 28 0 c23 0 27 4 27 28 1 24 2 25 11 9 6 -10 8 -21 5 -24z
m351 -5 c-3 -7 -5 -2 -5 12 0 14 2 19 5 13 2 -7 2 -19 0 -25z m-427 -29 c0 -4
-9 -11 -20 -14 -15 -5 -19 -12 -15 -26 4 -13 2 -19 -9 -19 -20 0 -20 0 0 50
13 33 19 38 30 29 8 -6 14 -15 14 -20z m1675 11 c-2 -4 -16 -5 -30 -2 -25 4
-33 -6 -16 -23 5 -6 11 -30 13 -55 3 -40 1 -45 -19 -48 -22 -3 -23 0 -23 56 0
53 -3 61 -22 67 -19 6 -13 9 27 14 53 7 78 4 70 -9z m-237 -43 c2 -35 -1 -49
-12 -53 -25 -10 -8 -23 24 -19 16 2 32 -1 35 -6 4 -5 -16 -9 -44 -9 l-51 0 0
71 c0 67 1 70 23 67 19 -3 22 -10 25 -51z m112 -17 c0 -62 -2 -70 -19 -70 -22
0 -31 26 -31 93 0 44 2 47 25 47 24 0 25 -2 25 -70z m254 64 c19 -7 21 -45 4
-63 -10 -11 -10 -14 0 -18 6 -3 12 -16 12 -29 0 -19 -5 -24 -26 -24 -18 0 -25
4 -21 14 3 8 -3 22 -14 32 -18 17 -19 16 -19 -14 0 -25 -4 -32 -20 -32 -18 0
-20 7 -20 70 l0 70 44 0 c24 0 51 -3 60 -6z m76 -54 c0 -46 4 -62 16 -67 9 -3
20 0 25 8 12 20 -1 92 -19 107 -13 10 -10 12 20 12 41 0 48 -11 48 -73 0 -61
-8 -69 -71 -65 l-54 3 -3 54 c-4 63 2 81 23 81 12 0 15 -13 15 -60z m-2930 20
c0 -5 -4 -10 -10 -10 -5 0 -10 5 -10 10 0 6 5 10 10 10 6 0 10 -4 10 -10z m70
-5 c9 -11 34 -15 96 -15 74 0 84 -2 95 -21 6 -12 8 -36 4 -55 -5 -28 -14 -37
-53 -55 -26 -12 -60 -30 -75 -41 -16 -11 -31 -17 -34 -14 -4 3 -1 6 5 6 7 0
12 11 12 25 0 25 -14 33 -25 15 -9 -15 -25 -12 -25 5 0 8 -9 15 -20 15 -15 0
-19 6 -17 23 2 20 -1 22 -43 18 -56 -4 -57 -5 -65 -41 -8 -36 -9 -36 -60 -7
-34 19 -40 28 -43 60 -5 56 10 67 84 67 59 0 65 -2 76 -25 7 -17 19 -25 36
-25 21 0 23 3 17 28 -3 15 -11 29 -17 31 -6 2 -5 7 3 12 20 13 35 11 49 -6z
m300 -86 c0 -28 -4 -48 -9 -45 -8 5 -9 29 -2 84 0 6 3 12 6 12 3 0 5 -23 5
-51z m-386 -41 c-7 -11 -34 -10 -34 1 0 6 9 9 19 8 11 0 17 -5 15 -9z m1026 8
c0 -3 -4 -8 -10 -11 -5 -3 -10 -1 -10 4 0 6 5 11 10 11 6 0 10 -2 10 -4z
m1621 -16 c10 -6 19 -17 19 -25 0 -19 -34 -19 -50 0 -25 30 -42 18 -39 -27 3
-54 15 -79 34 -72 18 7 20 31 3 37 -20 7 6 30 28 25 23 -4 31 -43 14 -64 -13
-14 -75 -19 -104 -8 -20 8 -23 129 -3 137 22 9 78 7 98 -3z m160 -65 c10 -38
19 -71 19 -72 0 -2 -11 -3 -25 -3 -14 0 -29 8 -35 20 -6 11 -15 20 -19 20 -5
0 -11 -9 -14 -20 -5 -21 -47 -29 -47 -9 0 6 8 40 17 75 17 65 17 65 52 62 33
-3 34 -5 52 -73z m137 63 c16 -16 15 -38 -1 -38 -8 0 -22 9 -32 20 -24 26 -35
25 -35 -4 0 -24 16 -36 50 -36 27 0 44 -34 30 -60 -15 -27 -44 -27 -35 0 8 26
-11 50 -39 50 -24 0 -46 17 -46 36 0 37 80 60 108 32z m-2858 -84 c0 -8 -4
-12 -10 -9 -5 3 -10 10 -10 16 0 5 5 9 10 9 6 0 10 -7 10 -16z m2792 -21 c23
-21 23 -33 -1 -33 -22 0 -45 25 -36 40 9 14 15 13 37 -7z m-2108 -19 c15 -6
23 -34 10 -34 -13 0 -44 21 -44 30 0 11 11 13 34 4z m-775 -158 c-1 -6 -1 -20
0 -31 1 -15 5 -12 17 14 17 41 28 37 12 -5 -10 -27 -15 -30 -52 -28 -41 2 -55
17 -43 48 6 15 68 17 66 2z m58 -33 c-3 -10 -5 -2 -5 17 0 19 2 27 5 18 2 -10
2 -26 0 -35z m47 20 c-2 -44 -3 -46 -18 -33 -12 9 -13 17 -4 36 15 32 24 30
22 -3z m984 -23 c4 -36 -14 -56 -35 -38 -12 9 -9 47 4 71 10 18 28 -1 31 -33z
m71 -41 c-8 -4 -18 -4 -23 1 -6 6 -15 5 -23 -1 -9 -8 -13 -8 -13 0 0 6 4 11 8
11 5 0 17 17 27 38 l18 37 10 -39 c7 -30 6 -40 -4 -47z m-147 59 c-7 -7 -12
-22 -12 -35 0 -13 -4 -23 -10 -23 -5 0 -9 16 -8 35 1 28 5 35 22 35 15 0 17
-3 8 -12z m-802 -13 c0 -8 -4 -15 -10 -15 -5 0 -10 7 -10 15 0 8 5 15 10 15 6
0 10 -7 10 -15z m1346 -43 c11 -6 28 -20 39 -32 l20 -22 -25 -20 c-33 -27
-119 -21 -153 9 -12 11 -37 28 -54 37 -18 9 -33 20 -33 24 0 26 160 29 206 4z
m-1584 -42 c-2 -16 -8 -30 -12 -30 -5 0 -8 14 -8 30 1 17 6 30 13 30 7 0 10
-11 7 -30z m58 5 c0 -33 18 -32 31 3 10 25 12 26 19 7 17 -42 13 -46 -43 -43
-42 2 -53 6 -53 20 0 9 4 14 8 12 5 -3 11 2 14 10 9 25 24 19 24 -9z m1060
-106 c0 -7 9 -9 21 -6 15 4 19 1 16 -11 -2 -9 -10 -15 -18 -13 -16 4 -38 4
-58 -1 -8 -2 -17 6 -19 17 -4 17 -2 18 12 6 13 -11 17 -11 22 3 7 18 24 22 24
5z m-1044 -49 c8 0 14 -7 14 -15 0 -14 14 -19 70 -28 14 -3 4 -5 -22 -6 -38
-1 -49 3 -58 19 -13 25 -35 26 -52 3 -7 -10 -24 -19 -38 -20 -24 -3 -24 -2 -5
9 11 6 31 22 45 35 13 14 26 20 28 14 2 -6 10 -11 18 -11z m989 0 c4 -6 -15
-10 -51 -10 -41 0 -63 -5 -77 -17 -19 -17 -20 -17 -8 4 8 17 22 23 59 26 26 2
52 4 59 5 6 1 15 -2 18 -8z m68 4 c12 -13 -3 -21 -28 -17 -13 3 -22 9 -19 14
6 10 38 12 47 3z m145 -10 c7 -2 12 -21 12 -49 0 -52 21 -46 -188 -50 -73 -1
-135 1 -138 6 -3 5 66 9 156 9 l161 0 -3 38 -3 37 -62 3 c-35 2 -63 7 -63 13
0 8 94 4 128 -7z m-1208 -34 c0 -5 -6 -10 -14 -10 -8 0 -18 5 -21 10 -3 6 3
10 14 10 12 0 21 -4 21 -10z m901 -12 c0 -22 1 -22 11 2 10 22 12 23 15 6 3
-10 0 -23 -5 -28 -16 -16 -42 -2 -42 22 0 28 20 26 21 -2z m59 3 c0 -11 -4
-23 -10 -26 -6 -4 -10 5 -10 19 0 14 5 26 10 26 6 0 10 -9 10 -19z m90 -7 c0
-22 -3 -24 -40 -22 -33 3 -40 7 -40 24 0 18 6 22 40 22 36 1 40 -2 40 -24z
m50 9 c1 -16 2 -16 13 -3 16 20 77 24 77 5 0 -8 0 -18 0 -22 0 -5 -27 -8 -60
-9 -57 -1 -60 1 -60 23 0 27 30 33 30 6z m-1006 -29 c8 -20 -1 -21 -113 -20
-79 1 -106 5 -109 15 -3 8 0 11 6 7 6 -3 13 -3 16 2 9 14 194 10 200 -4z m781
-14 c3 -5 1 -10 -4 -10 -6 0 -11 5 -11 10 0 6 2 10 4 10 3 0 8 -4 11 -10z
m-765 -20 c0 -6 -48 -9 -127 -8 l-128 2 125 6 c69 3 126 7 128 8 1 1 2 -2 2
-8z m2270 -76 c0 -64 -3 -85 -12 -82 -8 3 -14 29 -16 71 -2 51 -6 67 -17 67
-16 0 -20 12 -8 23 3 4 17 7 30 7 22 0 23 -3 23 -86z m164 54 c8 -22 5 -34
-17 -67 l-27 -41 25 0 c16 0 25 -6 25 -15 0 -12 -13 -15 -55 -15 -30 0 -55 5
-55 10 0 6 18 28 40 50 22 22 40 47 40 55 0 23 -31 31 -42 12 -10 -19 -38 -23
-38 -5 0 25 34 49 64 46 23 -2 33 -10 40 -30z m196 13 c0 -15 -6 -19 -26 -18
-34 3 -43 -19 -11 -27 32 -8 49 -46 33 -77 -14 -29 -66 -38 -86 -14 -17 20 -4
32 19 18 23 -14 44 -1 39 23 -2 13 -12 19 -30 19 -30 0 -31 2 -22 43 11 49 13
52 49 52 28 0 35 -4 35 -19z m120 -26 c0 -48 12 -57 32 -25 7 11 22 20 32 20
19 0 18 -1 -2 -23 -28 -30 -28 -35 5 -69 19 -20 22 -28 12 -28 -9 0 -26 11
-39 25 -13 14 -27 25 -32 25 -4 0 -8 -11 -8 -25 0 -14 -4 -25 -10 -25 -6 0
-10 35 -10 85 0 50 4 85 10 85 6 0 10 -20 10 -45z m230 -69 c0 -45 -5 -69 -16
-80 -16 -16 -59 -21 -88 -10 -30 11 -16 23 25 21 28 -1 43 3 47 12 3 10 -2 12
-22 7 -36 -9 -81 33 -70 67 12 39 25 47 75 47 l49 0 0 -64z m-3176 -44 c-1 -7
-2 -21 -2 -32 -1 -11 -9 -20 -17 -20 -18 0 -19 11 -2 29 10 11 9 14 -1 18 -15
6 -4 25 11 20 7 -2 12 -9 11 -15z m63 -14 c4 -30 -13 -46 -30 -29 -8 8 -8 11
1 11 7 0 12 7 12 15 0 8 -5 15 -11 15 -5 0 -7 5 -4 11 11 17 28 5 32 -23z m46
20 c21 -22 18 -54 -3 -54 -16 0 -20 7 -20 33 0 36 5 40 23 21z m2587 -3 c0 -8
-7 -15 -15 -15 -8 0 -15 7 -15 15 0 8 7 15 15 15 8 0 15 -7 15 -15z m-2525
-36 c0 -24 -5 -34 -15 -34 -16 0 -25 37 -16 62 10 26 31 8 31 -28z m855 31 c0
-5 -6 -10 -12 -11 -10 0 -10 -2 0 -6 17 -7 15 -42 -4 -50 -8 -3 -20 -1 -27 6
-8 8 -5 11 14 12 16 1 19 3 7 6 -18 4 -24 33 -11 46 10 11 33 8 33 -3z m90 -5
c16 -19 5 -65 -15 -65 -23 0 -41 46 -25 65 16 19 24 19 40 0z m60 0 c0 -10 6
-12 18 -8 14 6 15 4 4 -9 -9 -11 -10 -18 -2 -23 5 -3 10 -11 10 -17 0 -7 -6
-6 -15 2 -10 9 -15 9 -15 1 0 -6 -4 -11 -10 -11 -5 0 -10 18 -10 40 0 22 5 40
10 40 6 0 10 -7 10 -15z m98 -42 c-2 -30 -8 -39 -24 -41 -17 -2 -23 4 -28 29
-7 39 -1 49 30 49 23 0 25 -3 22 -37z m-798 -102 c0 -5 -5 -22 -11 -38 -13
-35 8 -53 62 -53 65 0 54 -19 -13 -22 -69 -3 -68 -1 -83 -110 -11 -84 -27 -59
-40 66 -3 27 -8 52 -10 56 -5 9 21 78 37 98 12 14 58 16 58 3z m-147 -20 c18
-6 17 -7 -1 -24 -20 -18 -52 -14 -52 7 0 25 18 31 53 17z m1267 -18 c39 -17
50 -35 30 -48 -8 -5 -8 -11 0 -20 9 -11 0 -15 -44 -20 -31 -4 -72 -4 -91 -1
-32 6 -35 10 -35 41 0 19 0 38 0 43 0 4 21 10 47 13 27 3 49 7 50 7 2 1 21 -6
43 -15z m175 -3 c3 -5 2 -10 -4 -10 -5 0 -13 5 -16 10 -3 6 -2 10 4 10 5 0 13
-4 16 -10z m-325 -56 c0 -23 -14 -32 -24 -16 -8 13 5 52 15 46 5 -3 9 -16 9
-30z m420 6 c0 -12 -57 -14 -63 -2 -3 4 10 8 29 9 19 2 34 -2 34 -7z m60 -130
c-13 -24 -13 -57 0 -65 5 -3 32 -8 59 -12 45 -5 51 -3 76 25 23 26 29 29 41
17 18 -18 18 -25 -2 -25 -9 0 -14 -6 -11 -12 2 -7 12 -12 22 -11 9 0 13 -3 9
-7 -5 -5 -34 -11 -64 -15 -80 -9 -95 -22 -115 -104 -9 -39 -21 -69 -25 -66 -5
3 -11 31 -15 63 -3 31 -10 73 -15 93 -8 30 -6 47 11 93 12 30 26 53 30 50 5
-3 5 -14 -1 -24z m1500 -60 c0 -5 -12 -10 -26 -10 -14 0 -23 4 -19 10 3 6 15
10 26 10 10 0 19 -4 19 -10z m10 -30 c0 -5 9 -10 20 -10 11 0 20 -4 20 -10 0
-13 -117 -13 -125 0 -3 5 0 7 9 4 8 -3 25 1 38 10 26 18 38 20 38 6z"/>
<path d="M3234 2979 c-8 -14 18 -31 30 -19 9 9 0 30 -14 30 -5 0 -12 -5 -16
-11z"/>
<path d="M3136 2148 c1 -13 3 -26 3 -30 2 -14 32 -8 37 7 7 17 -12 45 -31 45
-6 0 -11 -10 -9 -22z"/>
<path d="M435 2030 c3 -5 11 -10 16 -10 6 0 7 5 4 10 -3 6 -11 10 -16 10 -6 0
-7 -4 -4 -10z"/>
<path d="M3080 1966 c0 -8 -3 -21 -6 -30 -4 -12 0 -16 16 -16 16 0 20 4 16 16
-3 9 -6 22 -6 30 0 8 -4 14 -10 14 -5 0 -10 -6 -10 -14z"/>
<path d="M300 1690 c0 -5 5 -10 11 -10 5 0 7 5 4 10 -3 6 -8 10 -11 10 -2 0
-4 -4 -4 -10z"/>
<path d="M3364 1256 c-8 -32 2 -46 31 -46 29 0 47 27 34 52 -15 28 -57 23 -65
-6z"/>
<path d="M430 1170 c0 -5 5 -10 10 -10 6 0 10 5 10 10 0 6 -4 10 -10 10 -5 0
-10 -4 -10 -10z"/>
<path d="M1370 1160 c0 -11 5 -20 10 -20 6 0 10 9 10 20 0 11 -4 20 -10 20 -5
0 -10 -9 -10 -20z"/>
<path d="M1516 1162 c-3 -6 -1 -14 5 -17 15 -10 25 3 12 16 -7 7 -13 7 -17 1z"/>
<path d="M4 3205 c0 -170 2 -242 3 -158 2 83 2 223 0 310 -1 87 -3 19 -3 -152z"/>
<path d="M2878 3353 c-10 -2 -18 -9 -18 -14 0 -6 7 -6 18 -1 9 5 24 12 32 15
13 5 13 5 0 5 -8 0 -23 -2 -32 -5z"/>
<path d="M3238 3353 c7 -3 16 -2 19 1 4 3 -2 6 -13 5 -11 0 -14 -3 -6 -6z"/>
<path d="M2815 3320 c-3 -5 -2 -10 4 -10 5 0 13 5 16 10 3 6 2 10 -4 10 -5 0
-13 -4 -16 -10z"/>
<path d="M2890 3144 c-12 -32 -4 -50 16 -33 16 13 19 59 4 59 -6 0 -15 -12
-20 -26z"/>
<path d="M3230 3126 c0 -9 5 -16 10 -16 6 0 10 4 10 9 0 6 -4 13 -10 16 -5 3
-10 -1 -10 -9z"/>
<path d="M2258 3093 c-40 -33 -65 -61 -79 -88 -7 -13 -3 -11 13 6 12 14 47 43
76 63 28 21 52 40 52 42 0 13 -33 0 -62 -23z"/>
<path d="M830 1886 c0 -48 4 -85 9 -82 8 5 4 157 -5 165 -2 2 -4 -35 -4 -83z"/>
<path d="M798 1759 l-33 -30 37 23 c21 13 38 26 38 31 0 13 -9 8 -42 -24z"/>
</g>
</svg>
